<svg xmlns="http://www.w3.org/2000/svg" fill="none" viewBox="0 0 1792 1792"><path fill="#000" d="M1490 1258c0 26.67-9.33 49.33-28 68l-136 136c-18.67 18.67-41.33 28-68 28s-49.33-9.33-68-28l-294-294-294 294c-18.67 18.67-41.33 28-68 28s-49.33-9.33-68-28l-136-136c-18.67-18.67-28-41.33-28-68s9.33-49.33 28-68l294-294-294-294c-18.67-18.67-28-41.33-28-68s9.33-49.33 28-68l136-136c18.67-18.67 41.33-28 68-28s49.33 9.33 68 28l294 294 294-294c18.67-18.67 41.33-28 68-28s49.33 9.33 68 28l136 136c18.67 18.67 28 41.33 28 68s-9.33 49.33-28 68l-294 294 294 294c18.67 18.67 28 41.33 28 68Z"/></svg>