<svg xmlns="http://www.w3.org/2000/svg" fill="none" viewBox="0 0 1792 1792"><path fill="#000" d="m422.18 1481.6 383.55-390.38c32.48-33.1 32.03-86.3-1.07-118.77-32.48-33.1-86.3-32.03-118.77 1.06l-377.37 383.82c-.4-4.43-.62-8.9-.62-13.36V950.96c0-46.49-37.63-84-84-84-46.49 0-84 37.63-84 84v393c0 169.44 138.51 308 308 308h386.68c46.49 0 84-37.62 84-84 0-46.48-37.63-84-84-84H447.9c-8.81 0-17.32-.83-25.72-2.4ZM1359.55 308.56 964.5 710.3c-32.48 33.1-32.04 86.3 1.06 118.79 32.48 33.1 86.3 32.03 118.78-1.07l400.14-407.7a138.58 138.58 0 0 1 2.63 27.04v390.71c0 46.49 37.63 84 84 84 46.49 0 84-37.63 84-84V447.36c0-169.4-138.51-308-308-308H952.48c-46.49 0-84 37.63-84 84 0 46.49 37.63 84 84 84h394.63c4.15 0 8.23.17 12.32.56Z"/></svg>